<svg xmlns="http://www.w3.org/2000/svg" viewBox="0 0 600 300">
  <defs>
    <style>
      .cls-1 {
        stroke: #fff;
        stroke-miterlimit: 10;
      }
    </style>
  </defs>
  <title>level-up</title>
  <g id="Layer_2" data-name="Layer 2">
    <g>
      <path class="cls-1" d="M145.69,167.68V68H160v85.4h28.28v14.28Z"/>
      <path class="cls-1" d="M195.47,167.68V97.91h29.79v9.4H205.47V127.8h17.25v9.4H205.47v20.49h19.79v10Z"/>
      <path class="cls-1" d="M265.64,97.91l-14.31,69.77h-8.82L228.3,97.91h10.58l7.94,48.7h.2l8-48.7Z"/>
      <path class="cls-1" d="M271.62,167.68V97.91h29.79v9.4h-19.8V127.8h17.25v9.4H281.61v20.49h19.8v10Z"/>
      <path class="cls-1" d="M307.88,167.68V97.91h10v59.78h19.8v10Z"/>
      <path class="cls-1" d="M392.35,68v77.28a22.56,22.56,0,0,1-6.72,16.38,23.68,23.68,0,0,1-7.42,5,22.36,22.36,0,0,1-9,1.82,21.85,21.85,0,0,1-8.89-1.82A24.31,24.31,0,0,1,348,154.31a22.18,22.18,0,0,1-1.82-9V68h14.28v75.88q0,5.33,2.52,7.84a9.13,9.13,0,0,0,12.6,0q2.52-2.52,2.52-7.84V68Z"/>
      <path class="cls-1" d="M405.79,167.68V68h21.42a32,32,0,0,1,10.36,1.54A19.94,19.94,0,0,1,445.69,75a21.32,21.32,0,0,1,5,9.17,57.53,57.53,0,0,1,1.4,14.21,70.87,70.87,0,0,1-.77,11.34,23.61,23.61,0,0,1-3.29,8.68,20.8,20.8,0,0,1-7.84,7.63q-4.91,2.73-12.88,2.73h-7.28v38.92Zm14.28-86.24v33.88h6.86a14.61,14.61,0,0,0,6.72-1.26,7.9,7.9,0,0,0,3.5-3.5,12.71,12.71,0,0,0,1.33-5.18q.21-3.07.21-6.86,0-3.49-.14-6.65a14.28,14.28,0,0,0-1.26-5.53,8,8,0,0,0-3.36-3.64,13.33,13.33,0,0,0-6.44-1.26Z"/>
    </g>
  </g>
</svg>
