<svg xmlns="http://www.w3.org/2000/svg" viewBox="0 0 240 240">
  <defs>
    <style>
      .cls-1 {
        fill: none;
        stroke: #fff;
        stroke-miterlimit: 10;
      }

      .cls-2 {
        fill: #fff;
      }
    </style>
  </defs>
  <title>lp-vector-1</title>
  <g id="art-2">
    <path class="cls-1" d="M119.51,66.65c0,11.94-21.72,21.61-48.51,21.61S22.49,78.59,22.49,66.65"/>
    <path class="cls-2" d="M71,28.4c13,0,25.11,2.22,34.24,6.25C114.11,38.56,119,43.66,119,49s-4.89,10.46-13.76,14.37C96.11,67.4,84,69.62,71,69.62S45.89,67.4,36.76,63.38C27.89,59.47,23,54.36,23,49s4.89-10.45,13.76-14.36c9.13-4,21.29-6.25,34.24-6.25m0-1C43.94,27.4,22,37.08,22,49S43.94,70.62,71,70.62,120,61,120,49,98.06,27.4,71,27.4Z"/>
    <line class="cls-1" x1="22.5" y1="66.65" x2="22.5" y2="49.01"/>
    <line class="cls-1" x1="119.5" y1="66.65" x2="119.5" y2="49.01"/>
    <path class="cls-1" d="M119.51,91.79c0,11.94-21.72,21.61-48.51,21.61s-48.51-9.67-48.51-21.61"/>
    <path class="cls-1" d="M118.57,70.9a6.81,6.81,0,0,1,.94,3.25c0,11.93-21.72,21.61-48.51,21.61S22.49,86.08,22.49,74.15a9.49,9.49,0,0,1,.68-3.53"/>
    <line class="cls-1" x1="22.5" y1="91.79" x2="22.5" y2="74.15"/>
    <line class="cls-1" x1="119.5" y1="91.79" x2="119.5" y2="74.15"/>
    <path class="cls-1" d="M119.51,116.49c0,11.93-21.72,21.61-48.51,21.61s-48.51-9.68-48.51-21.61"/>
    <path class="cls-1" d="M118.57,95.59a6.86,6.86,0,0,1,.94,3.26c0,11.93-21.72,21.61-48.51,21.61s-48.51-9.68-48.51-21.61a9.45,9.45,0,0,1,.68-3.53"/>
    <line class="cls-1" x1="22.5" y1="116.49" x2="22.5" y2="98.85"/>
    <line class="cls-1" x1="119.5" y1="116.49" x2="119.5" y2="98.85"/>
    <rect class="cls-1" x="22.5" y="162.5" width="97" height="57"/>
    <ellipse class="cls-1" cx="180.5" cy="191.5" rx="27" ry="28"/>
    <rect class="cls-1" x="160.72" y="93.72" width="39.56" height="39.56" transform="translate(-27.39 160.88) rotate(-45)"/>
    <rect class="cls-1" x="153.5" y="27.5" width="54" height="35"/>
    <line class="cls-1" x1="119.5" y1="191.5" x2="153.5" y2="191.5"/>
    <line class="cls-1" x1="180.5" y1="141.5" x2="180.5" y2="163.5"/>
    <line class="cls-1" x1="180.5" y1="85.5" x2="180.5" y2="62.5"/>
  </g>
</svg>
